<svg width="24" height="25" viewBox="0 0 24 25" fill="none" xmlns="http://www.w3.org/2000/svg">
<g clip-path="url(#clip0_5_100)">
<path d="M19.3347 13.3416C19.3735 13.0305 19.4027 12.7194 19.4027 12.3888C19.4027 12.0583 19.3735 11.7472 19.3347 11.4361L21.386 9.8319C21.5708 9.68607 21.6194 9.42357 21.5027 9.20968L19.5583 5.84579C19.4708 5.69024 19.3055 5.60274 19.1305 5.60274C19.0722 5.60274 19.0138 5.61246 18.9652 5.6319L16.5444 6.60413C16.0388 6.21524 15.4944 5.8944 14.9013 5.65135L14.5319 3.07496C14.5027 2.84163 14.2985 2.66663 14.0555 2.66663H10.1666C9.92355 2.66663 9.71938 2.84163 9.69022 3.07496L9.32077 5.65135C8.72772 5.8944 8.18327 6.22496 7.67772 6.60413L5.25688 5.6319C5.19855 5.61246 5.14022 5.60274 5.08188 5.60274C4.91661 5.60274 4.75133 5.69024 4.66383 5.84579L2.71938 9.20968C2.59299 9.42357 2.65133 9.68607 2.83605 9.8319L4.88744 11.4361C4.84855 11.7472 4.81938 12.068 4.81938 12.3888C4.81938 12.7097 4.84855 13.0305 4.88744 13.3416L2.83605 14.9458C2.65133 15.0916 2.60272 15.3541 2.71938 15.568L4.66383 18.9319C4.75133 19.0875 4.91661 19.175 5.09161 19.175C5.14994 19.175 5.20827 19.1652 5.25688 19.1458L7.67772 18.1736C8.18327 18.5625 8.72772 18.8833 9.32077 19.1263L9.69022 21.7027C9.71938 21.9361 9.92355 22.1111 10.1666 22.1111H14.0555C14.2985 22.1111 14.5027 21.9361 14.5319 21.7027L14.9013 19.1263C15.4944 18.8833 16.0388 18.5527 16.5444 18.1736L18.9652 19.1458C19.0235 19.1652 19.0819 19.175 19.1402 19.175C19.3055 19.175 19.4708 19.0875 19.5583 18.9319L21.5027 15.568C21.6194 15.3541 21.5708 15.0916 21.386 14.9458L19.3347 13.3416V13.3416ZM17.4097 11.6791C17.4485 11.9805 17.4583 12.1847 17.4583 12.3888C17.4583 12.593 17.4388 12.8069 17.4097 13.0986L17.2735 14.1972L18.1388 14.8777L19.1888 15.6944L18.5083 16.8708L17.2735 16.375L16.2624 15.9666L15.3874 16.6277C14.9694 16.9388 14.5708 17.1722 14.1722 17.3375L13.1416 17.7555L12.986 18.8541L12.7916 20.1666H11.4305L11.2458 18.8541L11.0902 17.7555L10.0597 17.3375C9.64161 17.1625 9.25272 16.9388 8.86383 16.6472L7.9791 15.9666L6.94855 16.3847L5.71383 16.8805L5.03327 15.7041L6.08327 14.8875L6.94855 14.2069L6.81244 13.1083C6.78327 12.8069 6.76383 12.5833 6.76383 12.3888C6.76383 12.1944 6.78327 11.9708 6.81244 11.6791L6.94855 10.5805L6.08327 9.89996L5.03327 9.08329L5.71383 7.9069L6.94855 8.40274L7.95966 8.81107L8.83466 8.14996C9.25272 7.83885 9.65133 7.60551 10.0499 7.44024L11.0805 7.02218L11.2361 5.92357L11.4305 4.61107H12.7819L12.9666 5.92357L13.1222 7.02218L14.1527 7.44024C14.5708 7.61524 14.9597 7.83885 15.3485 8.13051L16.2333 8.81107L17.2638 8.39301L18.4985 7.89718L19.1791 9.07357L18.1388 9.89996L17.2735 10.5805L17.4097 11.6791ZM12.111 8.49996C9.96244 8.49996 8.22216 10.2402 8.22216 12.3888C8.22216 14.5375 9.96244 16.2777 12.111 16.2777C14.2597 16.2777 15.9999 14.5375 15.9999 12.3888C15.9999 10.2402 14.2597 8.49996 12.111 8.49996ZM12.111 14.3333C11.0416 14.3333 10.1666 13.4583 10.1666 12.3888C10.1666 11.3194 11.0416 10.4444 12.111 10.4444C13.1805 10.4444 14.0555 11.3194 14.0555 12.3888C14.0555 13.4583 13.1805 14.3333 12.111 14.3333Z" fill="white"/>
</g>
<defs>
<clipPath id="clip0_5_100">
<rect width="23.3333" height="23.3333" fill="white" transform="translate(0.444458 0.722168)"/>
</clipPath>
</defs>
</svg>
